<?xml version="1.0" encoding="utf-8"?>
<!-- Generator: Adobe Illustrator 16.0.0, SVG Export Plug-In . SVG Version: 6.00 Build 0)  -->
<!DOCTYPE svg PUBLIC "-//W3C//DTD SVG 1.1//EN" "http://www.w3.org/Graphics/SVG/1.1/DTD/svg11.dtd">
<svg version="1.1" id="Capa_1" xmlns="http://www.w3.org/2000/svg" xmlns:xlink="http://www.w3.org/1999/xlink" x="0px" y="0px"
	 width="599.996px" height="567.572px" viewBox="180.003 -0.334 599.996 567.572"
	 enable-background="new 180.003 -0.334 599.996 567.572" xml:space="preserve">
<g>
	<path fill="none" stroke="#FFFFFF" stroke-width="40" stroke-miterlimit="10" d="M759.074,174.924
		c-8.175-89.971-71.857-155.247-151.554-155.247c-53.096,0-101.711,28.572-129.066,74.366
		c-27.107-46.386-73.729-74.376-125.975-74.376c-79.686,0-143.379,65.276-151.542,155.247c-0.646,3.974-3.295,24.889,4.76,58.998
		c11.61,49.197,38.427,93.945,77.532,129.378l195.096,177.045L676.771,363.3c39.105-35.444,65.922-80.183,77.532-129.389
		C762.358,199.813,759.709,178.898,759.074,174.924z M733.334,228.978c-10.598,44.932-35.164,85.868-70.974,118.306L478.454,511.363
		l-180.75-164.035c-35.875-32.504-60.43-73.429-71.038-118.361c-7.625-32.277-4.491-50.51-4.48-50.629l0.162-1.088
		c7-78.824,61.722-136.044,130.132-136.044c50.479,0,94.915,31.017,116.002,80.935l9.919,23.511l9.919-23.511
		c20.754-49.153,67.538-80.924,119.212-80.924c68.399,0,123.132,57.22,130.272,137.068
		C737.825,178.457,740.959,196.701,733.334,228.978z"/>
</g>
</svg>
