<?xml version="1.0" encoding="utf-8"?>
<!-- Generator: Adobe Illustrator 16.0.0, SVG Export Plug-In . SVG Version: 6.00 Build 0)  -->
<!DOCTYPE svg PUBLIC "-//W3C//DTD SVG 1.1//EN" "http://www.w3.org/Graphics/SVG/1.1/DTD/svg11.dtd">
<svg version="1.1" id="Layer_1" focusable="false" xmlns="http://www.w3.org/2000/svg" xmlns:xlink="http://www.w3.org/1999/xlink"
	 x="0px" y="0px" width="560px" height="490.133px" viewBox="200 34.976 560 490.133"
	 enable-background="new 200 34.976 560 490.133" xml:space="preserve">
<path fill="#FFFFFF" d="M701.375,70.328C638.156,17.172,540.484,25.156,480,86.734c-60.484-61.578-158.156-69.672-221.375-16.406
	c-82.25,69.234-70.219,182.109-11.594,241.938l191.844,195.453c10.938,11.156,25.594,17.391,41.125,17.391
	c15.641,0,30.188-6.125,41.125-17.281l191.844-195.453C771.484,252.547,783.734,139.672,701.375,70.328z M675.563,275.406
	L483.719,470.859c-2.625,2.625-4.813,2.625-7.438,0L284.438,275.406c-39.922-40.688-48.016-117.688,7.984-164.828
	c42.547-35.766,108.172-30.406,149.297,11.484L480,161.109l38.281-39.047c41.344-42.109,106.969-47.25,149.297-11.594
	C723.469,157.609,715.156,235.047,675.563,275.406L675.563,275.406z"/>
</svg>
