<?xml version="1.0" encoding="utf-8"?>
<!-- Generator: Adobe Illustrator 24.0.0, SVG Export Plug-In . SVG Version: 6.00 Build 0)  -->
<svg version="1.1" id="Layer_1" xmlns="http://www.w3.org/2000/svg" xmlns:xlink="http://www.w3.org/1999/xlink" x="0px" y="0px"
	 viewBox="0 0 1348.3 1351.1" style="enable-background:new 0 0 1348.3 1351.1;" xml:space="preserve">
<style type="text/css">
	.st0{fill:#FFFFFF;}
</style>
<g transform="translate(0.000000,1470.000000) scale(0.100000,-0.100000)">
	<path class="st0" d="M6360,14683.1c-7-11-37-16-115-20c-106-6-258-23-450-51c-416-61-927-190-1250-314c-30-12-66-25-80-30
		c-301-102-793-341-1151-558c-343-207-809-556-1079-807c-90-83-369-362-461-460c-244-260-602-739-812-1085
		c-214-352-455-851-557-1150c-5-14-18-50-30-80c-123-316-253-835-314-1250c-54-369-61-477-61-940s7-571,61-940
		c61-414,190-929,314-1250c12-30,25-66,30-80c102-299,339-790,557-1150c207-343,567-824,812-1085c85-90,366-371,456-456
		c260-244,739-602,1085-812c352-214,851-455,1150-557c14-5,50-18,80-30c66-25,223-78,340-114c230-70,642-161,915-200
		c61-9,142-21,180-27c39-5,131-14,205-20c74-5,191-14,260-19c162-12,399-12,575,0c284,19,395,29,471,40c44,6,126,18,184,26
		c409,59,933,191,1250,314c30,12,66,25,80,30c298,101,800,344,1150,557c347,210,827,569,1085,812c91,85,372,366,456,456
		c244,260,602,739,812,1085c213,350,456,852,557,1150c5,14,18,50,30,80c119,305,256,852,314,1250c8,58,20,141,27,185
		c6,44,15,132,19,195c5,63,14,189,20,280c23,317-3,811-66,1220c-67,439-189,927-314,1250c-12,30-25,66-30,80
		c-101,298-344,800-557,1150c-210,346-568,825-812,1085c-85,90-366,371-456,456c-260,244-739,602-1085,812
		c-350,213-852,456-1150,557c-14,5-50,18-80,30c-325,125-838,254-1255,314c-60,9-141,21-180,27c-38,5-137,14-220,20
		c-113,7-153,13-161,24C7092,14706.1,6375,14705.1,6360,14683.1z M7290,13443.1c385-40,728-107,1095-211c63-18,333-107,370-122
		c14-5,45-18,70-27c43-17,63-25,140-58c173-74,435-203,571-281c227-130,358-216,564-370c542-405,958-860,1345-1471
		c99-156,254-452,333-635c15-36,34-80,42-98c32-73,43-99,60-142c9-25,22-56,27-70c14-34,104-305,118-355c179-625,252-1192,236-1825
		c-13-514-87-982-236-1505c-14-50-104-321-118-355c-5-14-18-45-27-70c-10-25-24-61-33-80c-8-19-22-51-30-70c-9-19-21-48-28-65
		c-50-116-184-384-248-496c-130-227-216-358-370-564c-309-413-658-762-1071-1071c-206-154-337-240-564-370c-136-78-398-207-571-281
		c-77-33-97-41-140-58c-25-9-56-22-70-27c-37-15-307-104-370-122c-352-100-669-163-1045-206c-293-34-848-36-1160-5
		c-211,22-487,63-596,91c-30,8-65,14-78,14c-12,0-43,6-69,14c-26,7-81,22-122,31c-41,10-95,23-120,30s-72,21-105,30
		c-65,19-335,107-375,123c-14,5-45,18-70,27c-25,10-61,24-80,33c-19,8-48,21-65,28c-16,7-59,26-95,41c-183,79-479,234-635,333
		c-523,332-928,681-1286,1110c-215,258-385,503-555,799c-64,112-198,380-248,496c-7,17-19,46-28,65c-8,19-22,51-30,70
		c-9,19-23,55-33,80c-9,25-22,56-27,70c-15,37-104,307-122,370c-105,368-170,704-213,1105c-24,227-24,863,0,1090
		c41,379,86,622,192,1030c17,64,91,304,111,358c46,123,74,197,91,234c7,18,20,48,29,68c113,265,269,566,399,770
		c103,161,135,208,249,360c307,411,663,767,1071,1071c206,154,337,240,564,370c136,78,398,207,571,281c77,33,97,41,140,58
		c25,9,56,22,70,27c37,15,307,104,370,122c443,126,901,206,1305,227C6602,13469.1,7124,13460.1,7290,13443.1z"/>
	<path class="st0" d="M7494,12353.1c-367-62-661-354-740-735c-18-83-18-257,0-340c42-204,126-356,278-500c183-176,370-250,626-250
		c309,0,563,134,758,400c117,159,175,402,150,625c-29,259-148,465-364,632C8010,12334.1,7748,12396.1,7494,12353.1z"/>
	<path class="st0" d="M7490,9442.1c-132-23-219-36-430-69c-49-8-133-21-185-30c-52-8-126-20-164-25s-85-14-105-20c-20-5-51-10-70-10
		c-18,0-63-6-100-14c-36-8-111-22-166-31s-138-23-185-31c-218-36-394-64-496-80c-17-2-38-12-46-22c-20-23-70-178-66-205
		c3-21,6-22,118-19c144,4,245-10,318-45c63-30,134-90,168-144c28-45,54-131,54-179c0-64-47-332-75-430c-7-25-16-56-18-70
		c-5-25-21-81-121-430c-82-285-147-509-161-555c-7-22-21-67-30-100c-10-33-22-72-27-87c-5-14-13-41-18-60c-8-35-211-739-240-833
		c-39-127-51-169-84-285c-8-30-65-228-127-440c-61-212-115-398-119-415c-4-16-12-43-18-60c-11-34-35-142-57-257c-17-89-20-323-4-383
		c6-22,14-56,18-75c20-91,108-234,197-323c172-171,366-241,664-240c278,0,505,67,770,226c398,238,790,671,1151,1271
		c58,96,76,134,69,146c-11,21-157,110-180,110c-10,0-34-26-60-67c-47-72-209-305-219-313c-3-3-19-23-36-45c-106-145-299-351-395-421
		c-126-93-236-99-311-17c-50,55-59,79-59,153c0,92,23,194,134,585c7,28,21,77,31,110c9,33,20,71,25,85s25,86,45,160
		c39,143,102,360,140,485c13,39,32,107,63,215c8,30,21,73,28,95s19,65,28,95c8,30,42,152,75,270c81,288,121,427,136,475
		c7,22,21,67,30,100c10,33,22,72,27,87c5,14,13,41,18,60c5,18,22,80,38,138c17,58,58,204,93,325c72,254,96,337,139,480
		c13,42,35,119,55,190c10,33,23,80,31,105c15,53,58,203,108,380c19,69,56,197,82,285s49,175,52,193l4,32l-198-1
		C7670,9466.1,7602,9461.1,7490,9442.1z"/>
</g>
</svg>
