<?xml version="1.0"?>
<svg xmlns="http://www.w3.org/2000/svg" xmlns:xlink="http://www.w3.org/1999/xlink" version="1.1" id="Capa_1" x="0px" y="0px" viewBox="0 0 465.92 465.92" style="enable-background:new 0 0 465.92 465.92;" xml:space="preserve" width="512px" height="512px" class=""><g><g>
	<g>
		<path d="M232.96,251.392c-38.4,0-69.12,30.72-69.12,69.12c0,38.4,30.72,69.12,69.12,69.12c38.4,0,69.12-30.72,69.12-69.12    C302.08,282.624,271.36,251.392,232.96,251.392z M232.96,357.888c-20.48,0-37.376-16.896-37.376-37.376    c0-20.48,16.896-37.376,37.376-37.376s37.376,16.896,37.376,37.376C270.336,340.992,253.44,357.888,232.96,357.888z" data-original="#000000" class="active-path" data-old_color="#000000" fill="#FFFFFF"/>
	</g>
</g><g>
	<g>
		<path d="M345.6,0H120.32C93.696,0,71.68,22.016,71.68,48.64v368.64c0,26.624,22.016,48.64,48.64,48.64H345.6    c26.624,0,48.64-22.016,48.64-48.64V48.64C394.24,22.016,372.224,0,345.6,0z M232.96,415.232c-52.224,0-94.72-42.496-94.72-94.72    c0-52.224,42.496-94.72,94.72-94.72s94.72,42.496,94.72,94.72S285.184,415.232,232.96,415.232z M353.28,181.76    c0,7.168-5.632,12.8-12.8,12.8H125.44c-7.168,0-12.8-5.632-12.8-12.8v-128c0-7.168,5.632-12.8,12.8-12.8h215.04    c7.168,0,12.8,5.632,12.8,12.8V181.76z" data-original="#000000" class="active-path" data-old_color="#000000" fill="#FFFFFF"/>
	</g>
</g></g> </svg>
