<?xml version="1.0"?>
<svg xmlns="http://www.w3.org/2000/svg" xmlns:xlink="http://www.w3.org/1999/xlink" version="1.1" id="Capa_1" x="0px" y="0px" width="512px" height="512px" viewBox="0 0 919.9 919.9" style="enable-background:new 0 0 919.9 919.9;" xml:space="preserve" class=""><g><g>
	<g>
		<path d="M795.5,869.9V50c0-27.6-22.399-50-50-50H174.4c-27.6,0-50,22.4-50,50v819.9c0,27.6,22.4,50,50,50h571.2    C773.2,919.9,795.5,897.5,795.5,869.9z M459.9,833.1c-108.101,0-195.8-87.699-195.8-195.8c0-108.1,87.699-195.8,195.8-195.8    c108.1,0,195.8,87.7,195.8,195.8C655.7,745.5,568.101,833.1,459.9,833.1z M691.601,345H228.3V97.3h463.3V345z" data-original="#000000" class="active-path" data-old_color="#000000" fill="#F6F6F6"/>
		<circle cx="459.9" cy="639.2" r="64.4" data-original="#000000" class="active-path" data-old_color="#000000" fill="#F6F6F6"/>
	</g>
</g></g> </svg>
