<?xml version="1.0" encoding="utf-8"?>
<!-- Generator: Adobe Illustrator 24.0.0, SVG Export Plug-In . SVG Version: 6.00 Build 0)  -->
<svg version="1.1" id="Capa_1" xmlns="http://www.w3.org/2000/svg" xmlns:xlink="http://www.w3.org/1999/xlink" x="0px" y="0px"
	 viewBox="0 0 512 512" style="enable-background:new 0 0 512 512;" xml:space="preserve">
<style type="text/css">
	.st0{fill:#F6F6F6;}
</style>
<g>
	<g>
		<g>
			<path class="st0" d="M512,484.2V27.8C512,12.5,494.9,0,473.9,0H38.1C17.1,0,0,12.5,0,27.8v456.3C0,499.5,17.1,512,38.1,512h435.8
				C495,512,512,499.5,512,484.2z M256,463.7c-60.2,0-109-48.8-109-109c0-60.2,48.8-109,109-109c60.2,0,109,48.8,109,109
				C365,414.9,316.2,463.7,256,463.7z M432.7,192H147V54.2h218V192H432.7z"/>
			<circle class="st0" cx="256" cy="355.8" r="35.8"/>
		</g>
	</g>
</g>
</svg>
