<?xml version="1.0"?>
<svg xmlns="http://www.w3.org/2000/svg" xmlns:xlink="http://www.w3.org/1999/xlink" version="1.1" id="Layer_1" x="0px" y="0px" viewBox="0 0 512 512" style="enable-background:new 0 0 512 512;" xml:space="preserve" width="512px" height="512px" class=""><g><g>
	<g>
		<path d="M379.063,0H132.937c-34.446,0-62.47,28.024-62.47,62.47v387.06c0,34.446,28.024,62.47,62.47,62.47h246.125    c34.446,0,62.47-28.024,62.47-62.47V62.47C441.533,28.024,413.509,0,379.063,0z M256,463.922    c-50.005,0-90.686-40.682-90.686-90.687s40.682-90.686,90.686-90.686c50.004,0,90.686,40.682,90.686,90.686    C346.686,423.239,306.005,463.922,256,463.922z M389.298,216.598c0,10.655-8.669,19.324-19.325,19.324H142.027v0.001    c-10.656,0-19.325-8.669-19.325-19.324V78.837c0-10.655,8.669-19.324,19.325-19.324h227.946c10.656,0,19.325,8.669,19.325,19.324    V216.598z" data-original="#000000" class="active-path" data-old_color="#000000" fill="#FFFFFF"/>
	</g>
</g><g>
	<g>
		<path d="M255.715,326.641c-25.692,0-46.593,20.902-46.593,46.594c0,25.692,20.901,46.594,46.593,46.594    c25.692,0,46.594-20.902,46.594-46.594C302.309,347.543,281.407,326.641,255.715,326.641z" data-original="#000000" class="active-path" data-old_color="#000000" fill="#FFFFFF"/>
	</g>
</g></g> </svg>
