<?xml version="1.0"?>
<svg xmlns="http://www.w3.org/2000/svg" xmlns:xlink="http://www.w3.org/1999/xlink" version="1.1" id="Capa_1" x="0px" y="0px" viewBox="0 0 512 512" style="enable-background:new 0 0 512 512;" xml:space="preserve" width="512px" height="512px" class=""><g><g>
	<g>
		<g>
			<path d="M256,307.2c-28.16,0-51.2,23.04-51.2,51.2c0,28.16,23.04,51.2,51.2,51.2s51.2-23.04,51.2-51.2     C307.2,330.24,284.16,307.2,256,307.2z" data-original="#000000" class="active-path" data-old_color="#000000" fill="#FAFAFA"/>
			<path d="M409.6,0H102.4C89.6,0,76.8,12.8,76.8,25.6v460.8c0,15.36,12.8,25.6,25.6,25.6h307.2c12.8,0,25.6-10.24,25.6-25.6V25.6     C435.2,12.8,422.4,0,409.6,0z M256,460.8c-56.32,0-102.4-46.08-102.4-102.4S199.68,256,256,256s102.4,46.08,102.4,102.4     S312.32,460.8,256,460.8z M384,204.8H128V51.2h256V204.8z" data-original="#000000" class="active-path" data-old_color="#000000" fill="#FAFAFA"/>
		</g>
	</g>
</g><g id="SVGCleanerId_0">
	<g>
		<path d="M256,307.2c-28.16,0-51.2,23.04-51.2,51.2c0,28.16,23.04,51.2,51.2,51.2s51.2-23.04,51.2-51.2    C307.2,330.24,284.16,307.2,256,307.2z" data-original="#000000" class="active-path" data-old_color="#000000" fill="#FAFAFA"/>
	</g>
</g><g>
	<g>
		<path d="M256,307.2c-28.16,0-51.2,23.04-51.2,51.2c0,28.16,23.04,51.2,51.2,51.2s51.2-23.04,51.2-51.2    C307.2,330.24,284.16,307.2,256,307.2z" data-original="#000000" class="active-path" data-old_color="#000000" fill="#FAFAFA"/>
	</g>
</g></g> </svg>
