<?xml version="1.0" encoding="utf-8"?>
<!-- Generator: Adobe Illustrator 16.0.0, SVG Export Plug-In . SVG Version: 6.00 Build 0)  -->
<!DOCTYPE svg PUBLIC "-//W3C//DTD SVG 1.1//EN" "http://www.w3.org/Graphics/SVG/1.1/DTD/svg11.dtd">
<svg version="1.1" id="Layer_1" xmlns="http://www.w3.org/2000/svg" xmlns:xlink="http://www.w3.org/1999/xlink" x="0px" y="0px"
	 width="181.97px" height="184.436px" viewBox="59.03 58.707 181.97 184.436" enable-background="new 59.03 58.707 181.97 184.436"
	 xml:space="preserve">
<g transform="translate(0.000000,300.000000) scale(0.100000,-0.100000)">
	<path fill="#FFFFFF" d="M1365,2410l-670-5l-32.002-22.998c-100-71.001-90-237.002,18.003-292.002
		c37.998-20,57.998-20,831.001-17.998L2305,2075l34.004,23.999c40,28.003,70,91.001,70.996,143.999
		c0,71.001-57.002,148.003-120.996,161.001C2240,2413.999,2020,2415,1365,2410z"/>
	<path fill="#FFFFFF" d="M705,1667.002c-47.002-18.003-71.001-39.004-95-80c-30-50-25-137.998,10-186.006
		c45-63.994,77.002-70.996,332.998-70.996c251.001,0,273.003,4.004,320,59.004c73.003,86.992,53.003,208.994-42.998,264.995
		c-32.002,18.999-52.998,21.001-265,23.003C803.999,1678.999,726.001,1676.001,705,1667.002z"/>
	<path fill="#FFFFFF" d="M1507.002,1667.998c-15-11.997-17.002-47.998-19.004-362.998L1485,955l-55-5.996
		c-71.001-8.008-128.999-38.008-173.999-90c-63.999-75-63.003-170,1.997-231.006c90-83.994,243.003-77.998,346.006,12.002
		c71.992,62.998,70.996,57.998,73.994,422.998l2.998,327.002h265H2210v-220V950h-37.998c-62.002,0-127.998-27.998-176.006-75
		C1917.002,797.998,1910,700,1980,630c44.004-44.004,90-60,172.002-60c75.996,0,170,47.002,212.998,107.998l30,44.004l2.998,462.998
		c2.002,412.998,1.006,465-12.998,478.999c-15,13.999-65,16.001-439.004,16.001C1624.004,1680,1520,1677.002,1507.002,1667.998z"/>
	<path fill="#FFFFFF" d="M683.999,920.996c-57.998-25.996-86.997-71.992-91.997-141.992c-4.004-49.004,0-65,20.996-102.002
		c35-60,79.004-80,188.003-85c102.998-5,160,15,202.998,70.996c67.002,87.998,31.001,221.006-71.001,262.998
		C882.998,947.002,733.999,944.004,683.999,920.996z"/>
</g>
</svg>
