<?xml version="1.0"?>
<svg xmlns="http://www.w3.org/2000/svg" xmlns:xlink="http://www.w3.org/1999/xlink" version="1.1" id="Capa_1" x="0px" y="0px" viewBox="0 0 384 384" style="enable-background:new 0 0 384 384;" xml:space="preserve" width="512px" height="512px" class=""><g><g>
	<g>
		<g>
			<path d="M360,8H24C10.745,8,0,18.745,0,32v320c0,13.255,10.745,24,24,24h336c13.255,0,24-10.745,24-24V32     C384,18.745,373.255,8,360,8z M368,352c0,4.418-3.582,8-8,8H24c-4.418,0-8-3.582-8-8V32c0-4.418,3.582-8,8-8h336     c4.418,0,8,3.582,8,8V352z" data-original="#000000" class="active-path" data-old_color="#000000" fill="#FFFFFF"/>
			<path d="M336,40h-16c-8.837,0-16,7.163-16,16v24c0,4.418,3.582,8,8,8h8v83.056l-9.24,4.624     c-8.999-65.625-69.493-111.529-135.118-102.53C116.246,81.295,71.987,132.048,72,192c1.031,66.266,55.586,119.15,121.852,118.119     c64.438-1.002,116.578-52.723,118.1-117.151l19.624-9.768c2.725-1.362,4.441-4.153,4.424-7.2V88h8c4.418,0,8-3.582,8-8V56     C352,47.163,344.837,40,336,40z M241.904,202.832c-2.702-3.48-7.709-4.12-11.2-1.432l-13.432,10.4     c-10.9,8.439-12.895,24.116-4.456,35.016l0.136,0.176c4.041,5.16,9.96,8.511,16.464,9.32c1.061,0.134,2.13,0.201,3.2,0.2     c5.506-0.006,10.854-1.844,15.2-5.224l13.432-10.4c3.48-2.702,4.12-7.709,1.432-11.2l-6.736-8.696L295.52,201.2     c-5.081,57.212-55.58,99.473-112.792,94.392c-57.212-5.081-99.473-55.58-94.392-112.792C93.104,129.111,138.1,87.963,192,88     c54.01,0.08,98.986,41.456,103.56,95.272l-49.6,24.8L241.904,202.832z M245.144,233.136l-7.104,5.496     c-3.909,3.027-9.532,2.311-12.559-1.598c0,0-0.001-0.001-0.001-0.002l-0.104-0.136c-2.937-3.915-2.185-9.464,1.688-12.456     l7.104-5.496L245.144,233.136z M336,72h-16V56h16V72z" data-original="#000000" class="active-path" data-old_color="#000000" fill="#FFFFFF"/>
			<path d="M192,120h8v-16h-8c-48.577,0.057-87.943,39.423-88,88v8h16v-8C120.044,152.254,152.254,120.044,192,120z" data-original="#000000" class="active-path" data-old_color="#000000" fill="#FFFFFF"/>
			<path d="M200,152v-16h-8c-30.913,0.035-55.965,25.087-56,56v8h16v-8c0.026-22.08,17.92-39.974,40-40H200z" data-original="#000000" class="active-path" data-old_color="#000000" fill="#FFFFFF"/>
			<path d="M40,88h64c4.418,0,8-3.582,8-8V48c0-4.418-3.582-8-8-8H40c-4.418,0-8,3.582-8,8v32C32,84.418,35.582,88,40,88z M48,56h48     v16H48V56z" data-original="#000000" class="active-path" data-old_color="#000000" fill="#FFFFFF"/>
			<path d="M320,280c-17.673,0-32,14.327-32,32c0,17.673,14.327,32,32,32c17.673,0,32-14.327,32-32C352,294.327,337.673,280,320,280     z M334.107,319.597c-2.788,5.193-8.213,8.425-14.107,8.403c-8.806,0.033-15.97-7.079-16.003-15.885     c-0.022-5.894,3.21-11.32,8.403-14.107c-0.218,0.644-0.353,1.314-0.4,1.992v12c0,4.418,3.582,8,8,8s8-3.582,8-8v-12     c-0.047-0.678-0.182-1.348-0.4-1.992C335.359,302.173,338.272,311.838,334.107,319.597z" data-original="#000000" class="active-path" data-old_color="#000000" fill="#FFFFFF"/>
			<path d="M192,168c-13.255,0-24,10.745-24,24s10.745,24,24,24s24-10.745,24-24S205.255,168,192,168z M192,200     c-4.418,0-8-3.582-8-8s3.582-8,8-8s8,3.582,8,8S196.418,200,192,200z" data-original="#000000" class="active-path" data-old_color="#000000" fill="#FFFFFF"/>
			<path d="M104,296H40c-4.418,0-8,3.582-8,8v32c0,4.418,3.582,8,8,8h64c4.418,0,8-3.582,8-8v-32C112,299.582,108.418,296,104,296z      M64,328H48v-16h16V328z M96,328H80v-16h16V328z" data-original="#000000" class="active-path" data-old_color="#000000" fill="#FFFFFF"/>
		</g>
	</g>
</g></g> </svg>
