<?xml version="1.0"?>
<svg xmlns="http://www.w3.org/2000/svg" height="512px" viewBox="0 0 512 512" width="512px" class=""><g><g fill-rule="evenodd"><path d="m467 0h-422c-24.8125 0-45 20.1875-45 45v422c0 24.8125 20.1875 45 45 45h422c24.8125 0 45-20.1875 45-45v-422c0-24.8125-20.1875-45-45-45zm15 467c0 8.269531-6.730469 15-15 15h-422c-8.269531 0-15-6.730469-15-15v-422c0-8.269531 6.730469-15 15-15h422c8.269531 0 15 6.730469 15 15zm0 0" data-original="#000000" class="active-path" data-old_color="#000000" fill="#FEFEFE"/><path d="m287 122c-39.875 0-76.488281 14.21875-105.042969 37.851562l-35.652343-37.011718c2.371093-5.472656 3.695312-11.503906 3.695312-17.839844 0-24.8125-20.1875-45-45-45s-45 20.1875-45 45 20.1875 45 45 45c7.523438 0 14.617188-1.863281 20.855469-5.144531l34.8125 36.136719c-24.117188 28.691406-38.667969 65.679687-38.667969 106.007812 0 90.980469 74.019531 165 165 165s165-74.019531 165-165-74.019531-165-165-165zm-197-17c0-8.269531 6.730469-15 15-15s15 6.730469 15 15-6.730469 15-15 15-15-6.730469-15-15zm197 317c-74.4375 0-135-60.5625-135-135 0-31.851562 11.09375-61.152344 29.609375-84.265625l28.585937 29.671875c2.945313 3.058594 6.875 4.59375 10.808594 4.59375 3.742188 0 7.492188-1.394531 10.402344-4.195312 5.964844-5.75 6.144531-15.246094.398438-21.210938l-28.964844-30.066406c23.09375-18.46875 52.359375-29.527344 84.160156-29.527344 74.4375 0 135 60.5625 135 135s-60.558594 135-135 135zm0 0" data-original="#000000" class="active-path" data-old_color="#000000" fill="#FEFEFE"/><path d="m287 242c-24.8125 0-45 20.1875-45 45s20.1875 45 45 45 45-20.1875 45-45-20.1875-45-45-45zm0 60c-8.269531 0-15-6.730469-15-15s6.730469-15 15-15 15 6.730469 15 15-6.730469 15-15 15zm0 0" data-original="#000000" class="active-path" data-old_color="#000000" fill="#FEFEFE"/><path d="m75 364c-8.261719 0-15 6.738281-15 15s6.738281 15 15 15 15-6.738281 15-15-6.738281-15-15-15zm0 0" data-original="#000000" class="active-path" data-old_color="#000000" fill="#FEFEFE"/><path d="m75 422c-8.261719 0-15 6.738281-15 15s6.738281 15 15 15 15-6.738281 15-15-6.738281-15-15-15zm0 0" data-original="#000000" class="active-path" data-old_color="#000000" fill="#FEFEFE"/><path d="m452 75c0 8.285156-6.714844 15-15 15s-15-6.714844-15-15 6.714844-15 15-15 15 6.714844 15 15zm0 0" data-original="#000000" class="active-path" data-old_color="#000000" fill="#FEFEFE"/><path d="m394 75c0 8.285156-6.714844 15-15 15s-15-6.714844-15-15 6.714844-15 15-15 15 6.714844 15 15zm0 0" data-original="#000000" class="active-path" data-old_color="#000000" fill="#FEFEFE"/><path d="m335.703125 75c0 8.285156-6.714844 15-15 15s-15-6.714844-15-15 6.714844-15 15-15 15 6.714844 15 15zm0 0" data-original="#000000" class="active-path" data-old_color="#000000" fill="#FEFEFE"/></g></g> </svg>
