<?xml version="1.0"?>
<svg xmlns="http://www.w3.org/2000/svg" height="512px" viewBox="0 -31 512 512" width="512px" class=""><g><path d="m391.5 90h30.25v30h-30.25zm0 0" data-original="#000000" class="active-path" data-old_color="#000000" fill="#FFFFFF"/><path d="m210.25 120c-66.167969 0-120 53.832031-120 120 0 64.464844 51.703125 120 121.125 120 49.414062 0 91.945312-30.027344 110.316406-72.789062-67.894531 13.523437-63.589844 12.792968-65.707031 12.792968-7.007813 0-13.273437-4.9375-14.695313-12.074218-1.617187-8.125 3.65625-16.023438 11.78125-17.640626l77.382813-15.414062c8.734375-70.335938-45.339844-134.875-120.203125-134.875zm.5625 135c-8.320312 0-15.0625-6.714844-15.0625-15s6.742188-15 15.0625-15 15.0625 6.714844 15.0625 15-6.742188 15-15.0625 15zm0 0" data-original="#000000" class="active-path" data-old_color="#000000" fill="#FFFFFF"/><path d="m456.917969 0h-401.835938c-30.371093 0-55.082031 24.710938-55.082031 55.082031v339.835938c0 30.371093 24.710938 55.082031 55.082031 55.082031h401.835938c30.371093 0 55.082031-24.710938 55.082031-55.082031v-339.835938c0-30.371093-24.710938-55.082031-55.082031-55.082031zm-5.167969 135c0 8.285156-6.714844 15-15 15h-15.125v105c0 7.15625-5.054688 13.3125-12.070312 14.710938l-53.714844 10.699218c-17.363282 61.988282-74.199219 109.589844-145.589844 109.589844-82.710938 0-150-67.289062-150-150 0-80.949219 65.09375-150 151.125-150 85.769531 0 154.746094 72.304688 149.738281 158.769531l30.511719-6.078125v-92.691406h-15.125c-8.285156 0-15-6.714844-15-15v-60c0-8.285156 6.714844-15 15-15h60.25c8.285156 0 15 6.714844 15 15zm0 0" data-original="#000000" class="active-path" data-old_color="#000000" fill="#FFFFFF"/></g> </svg>
