<?xml version="1.0"?>
<svg xmlns="http://www.w3.org/2000/svg" xmlns:xlink="http://www.w3.org/1999/xlink" version="1.1" id="Capa_1" x="0px" y="0px" viewBox="0 0 512 512" style="enable-background:new 0 0 512 512;" xml:space="preserve" width="512px" height="512px"><g><g>
	<g>
		<path d="M454.035,269.419c0.257-4.451,0.403-8.922,0.403-13.417c0-60.692-23.635-117.752-66.551-160.668    c-42.915-42.918-99.975-66.553-160.667-66.553c-60.692,0-117.753,23.635-160.669,66.552C23.635,138.248,0,195.308,0,256    s23.635,117.752,66.551,160.668c42.916,42.917,99.976,66.551,160.668,66.551c60.692,0,117.752-23.635,160.668-66.551    c6.567-6.567,12.678-13.469,18.327-20.661L320.74,417.24l-18.292-73.637c-20.227,17.395-46.52,27.924-75.229,27.924    c-63.701,0-115.525-51.824-115.525-115.525s51.824-115.525,115.525-115.525s115.525,51.824,115.525,115.525    c0,15.243-2.974,29.803-8.362,43.138L454.035,269.419z" data-original="#000000" class="active-path" data-old_color="#000000" fill="#FFFFFF"/>
	</g>
</g><g>
	<g>
		<path d="M312.746,256c0-47.159-38.367-85.525-85.525-85.525c-47.158,0-85.526,38.366-85.526,85.525s38.366,85.525,85.525,85.525    c26.968,0,51.046-12.56,66.733-32.124l-0.051-0.208l0.267-0.066C305.782,294.523,312.746,276.064,312.746,256z M227.22,299.796    c-24.149,0-43.796-19.647-43.796-43.796c0-24.149,19.647-43.796,43.796-43.796c24.149,0,43.796,19.647,43.796,43.796    C271.016,280.149,251.369,299.796,227.22,299.796z" data-original="#000000" class="active-path" data-old_color="#000000" fill="#FFFFFF"/>
	</g>
</g><g>
	<g>
		<path d="M227.22,242.204c-7.607,0-13.796,6.189-13.796,13.796s6.189,13.796,13.796,13.796c7.607,0,13.796-6.189,13.796-13.796    C241.016,248.393,234.827,242.204,227.22,242.204z" data-original="#000000" class="active-path" data-old_color="#000000" fill="#FFFFFF"/>
	</g>
</g><g>
	<g>
		<polygon points="512,118.136 482,118.136 482,306.039 442.683,315.29 439.842,303.854 330.249,331.077 342.623,380.892     452.216,353.669 449.915,344.408 512,329.8   " data-original="#000000" class="active-path" data-old_color="#000000" fill="#FFFFFF"/>
	</g>
</g></g> </svg>
