<?xml version="1.0"?>
<svg xmlns="http://www.w3.org/2000/svg" xmlns:xlink="http://www.w3.org/1999/xlink" version="1.1" id="Layer_1" x="0px" y="0px" viewBox="0 0 512 512" style="enable-background:new 0 0 512 512;" xml:space="preserve" width="512px" height="512px" class=""><g><g>
	<g>
		<path d="M222.609,239.304c-27.618,0-50.087,22.469-50.087,50.087s22.469,50.087,50.087,50.087    c27.618,0,50.087-22.469,50.087-50.087S250.227,239.304,222.609,239.304z M222.609,306.087c-9.206,0-16.696-7.49-16.696-16.696    s7.49-16.696,16.696-16.696s16.696,7.49,16.696,16.696S231.815,306.087,222.609,306.087z" data-original="#000000" class="active-path" data-old_color="#000000" fill="#FFFFFF"/>
	</g>
</g><g>
	<g>
		<path d="M422.957,72.348c-27.618,0-50.087,22.469-50.087,50.087c0,21.766,13.959,40.323,33.391,47.215v119.741    c0,9.206-7.49,16.696-16.696,16.696h-17.628c0.609-5.484,0.933-11.053,0.933-16.696c0-82.854-67.407-150.261-150.261-150.261    S72.348,206.537,72.348,289.391s67.407,150.261,150.261,150.261c65.299,0,120.992-41.873,141.666-100.174h25.291    c27.618,0,50.087-22.469,50.087-50.087V169.65c19.433-6.892,33.391-25.45,33.391-47.215    C473.043,94.817,450.574,72.348,422.957,72.348z M338.281,306.087h-48.889c-9.22,0-16.696,7.475-16.696,16.696    s7.475,16.696,16.696,16.696h38.795c-18.79,39.45-59.05,66.783-105.578,66.783c-64.442,0-116.87-52.428-116.87-116.87    s52.428-116.87,116.87-116.87s116.87,52.428,116.87,116.87C339.478,295.06,339.064,300.632,338.281,306.087z M422.957,139.13    c-9.206,0-16.696-7.49-16.696-16.696c0-9.206,7.49-16.696,16.696-16.696c9.206,0,16.696,7.49,16.696,16.696    C439.652,131.641,432.162,139.13,422.957,139.13z" data-original="#000000" class="active-path" data-old_color="#000000" fill="#FFFFFF"/>
	</g>
</g><g>
	<g>
		<path d="M322.783,72.348H89.044c-9.22,0-16.696,7.475-16.696,16.696c0,9.22,7.475,16.696,16.696,16.696h233.739    c9.22,0,16.696-7.475,16.696-16.696C339.478,79.823,332.003,72.348,322.783,72.348z" data-original="#000000" class="active-path" data-old_color="#000000" fill="#FFFFFF"/>
	</g>
</g><g>
	<g>
		<circle cx="422.957" cy="422.956" r="16.696" data-original="#000000" class="active-path" data-old_color="#000000" fill="#FFFFFF"/>
	</g>
</g><g>
	<g>
		<circle cx="89.044" cy="422.956" r="16.696" data-original="#000000" class="active-path" data-old_color="#000000" fill="#FFFFFF"/>
	</g>
</g><g>
	<g>
		<path d="M456.348,0H55.652C24.966,0,0,24.966,0,55.652v400.696C0,487.034,24.966,512,55.652,512h400.696    C487.034,512,512,487.034,512,456.348V55.652C512,24.966,487.034,0,456.348,0z M478.609,456.348    c0,12.275-9.986,22.261-22.261,22.261H55.652c-12.275,0-22.261-9.986-22.261-22.261V55.652c0-12.275,9.986-22.261,22.261-22.261    h400.696c12.275,0,22.261,9.986,22.261,22.261V456.348z" data-original="#000000" class="active-path" data-old_color="#000000" fill="#FFFFFF"/>
	</g>
</g></g> </svg>
