<?xml version="1.0"?>
<svg xmlns="http://www.w3.org/2000/svg" xmlns:xlink="http://www.w3.org/1999/xlink" version="1.1" id="Capa_1" x="0px" y="0px" viewBox="0 0 512 512" style="enable-background:new 0 0 512 512;" xml:space="preserve" width="512px" height="512px" class=""><g><g>
	<g>
		<path d="M467,16H45C20.187,16,0,36.187,0,61v390c0,24.813,20.187,45,45,45h422c24.813,0,45-20.187,45-45V61    C512,36.187,491.813,16,467,16z M482,451c0,8.271-6.729,15-15,15H45c-8.271,0-15-6.729-15-15v-15h452V451z M482,406h-31v-45    c0-8.284-6.716-15-15-15s-15,6.716-15,15v45h-30v-45c0-8.284-6.716-15-15-15s-15,6.716-15,15v45H30V61c0-8.271,6.729-15,15-15h422    c8.271,0,15,6.729,15,15V406z" data-original="#000000" class="active-path" data-old_color="#000000" fill="#FFFFFF"/>
	</g>
</g><g>
	<g>
		<path d="M436,76h-60c-8.284,0-15,6.716-15,15s6.716,15,15,15h15l-0.001,126.972l-32.766,21.844    C360.068,245.389,361,235.764,361,226c0-82.71-67.29-150-150-150S61,143.29,61,226s67.29,150,150,150    c33.625,0,66.067-11.239,92.37-31.817c4.01,1.175,8.245,1.817,12.63,1.817c24.813,0,45-20.187,45-45    c0-3.813-0.481-7.516-1.378-11.054l54.697-36.466c4.173-2.782,6.68-7.465,6.68-12.48L421,106h15c8.284,0,15-6.716,15-15    S444.284,76,436,76z M316,316c-8.271,0-15-6.729-15-15s6.729-15,15-15s15,6.729,15,15S324.271,316,316,316z M326.869,257.335    C323.386,256.468,319.747,256,316,256c-24.813,0-45,20.187-45,45c0,8.993,2.662,17.371,7.224,24.408    C258.484,338.77,235.124,346,211,346c-66.168,0-120-53.832-120-120s53.832-120,120-120s120,53.832,120,120    C331,236.701,329.609,247.187,326.869,257.335z" data-original="#000000" class="active-path" data-old_color="#000000" fill="#FFFFFF"/>
	</g>
</g><g>
	<g>
		<path d="M211,166c-33.084,0-60,26.916-60,60s26.916,60,60,60s60-26.916,60-60S244.084,166,211,166z M211,256    c-16.542,0-30-13.458-30-30s13.458-30,30-30s30,13.458,30,30S227.542,256,211,256z" data-original="#000000" class="active-path" data-old_color="#000000" fill="#FFFFFF"/>
	</g>
</g></g> </svg>
