<!--?xml version="1.0" standalone="no"?-->

<svg version="1.0" xmlns="http://www.w3.org/2000/svg" width="215.000000pt" height="300.000000pt" viewBox="0 0 215.000000 300.000000" preserveAspectRatio="xMidYMid meet">
<g transform="translate(0.000000,300.000000) scale(0.100000,-0.100000)" fill="#040404" stroke="none">
<path d="M800 2991 c0 -5 -21 -12 -47 -16 -42 -6 -56 -15 -114 -75 -65 -68
-66 -68 -133 -75 -57 -6 -75 -14 -135 -55 -126 -89 -209 -206 -300 -421 -53
-125 -68 -201 -52 -264 5 -22 30 -98 55 -170 32 -94 48 -158 56 -230 6 -55 18
-116 28 -135 14 -30 21 -35 47 -32 42 4 115 -8 115 -18 0 -5 -22 -16 -50 -25
-49 -16 -66 -37 -54 -68 11 -29 38 -30 60 -2 21 27 22 27 40 7 31 -32 62 -43
99 -36 61 11 82 73 51 148 -19 46 -62 73 -142 91 -154 34 -153 34 -148 69 17
133 27 184 40 203 15 24 39 30 49 12 5 -6 12 -4 20 7 12 16 20 17 101 6 87
-12 89 -11 106 11 10 12 18 28 18 35 0 17 19 15 26 -3 8 -20 24 -9 24 16 0 10
5 19 12 19 6 0 20 8 30 17 18 16 21 14 73 -40 34 -35 60 -54 69 -51 8 3 31 26
51 50 23 28 44 44 59 44 12 0 27 5 33 11 7 7 15 6 26 -5 21 -21 27 -20 27 3 0
41 24 32 84 -32 44 -48 75 -71 111 -84 79 -29 117 -100 155 -288 l16 -80 38
-6 c57 -9 78 -44 101 -167 9 -46 21 -32 41 48 10 39 23 69 28 67 15 -5 33
-105 42 -219 6 -87 9 -98 25 -98 13 0 19 -7 19 -22 1 -66 52 -55 71 15 24 84
42 82 54 -6 7 -48 7 -48 39 -41 47 10 79 44 41 44 -20 0 -19 6 14 72 16 32 33
82 36 111 6 50 9 53 56 80 l49 27 0 92 c0 124 22 162 38 67 10 -59 26 -56 30
6 4 60 -14 128 -39 151 -20 18 -26 44 -10 44 16 0 59 -58 73 -97 22 -63 16
-244 -10 -331 -20 -63 -32 -82 -93 -147 l-71 -74 16 -63 c26 -100 32 -263 11
-318 -9 -25 -19 -57 -22 -72 l-5 -26 38 13 c72 26 104 12 104 -45 0 -37 28
-34 74 6 l44 39 -1 860 -2 860 -28 59 c-16 35 -47 77 -75 103 -44 41 -42 63 2
26 l21 -18 -20 24 c-11 13 -44 34 -72 47 -29 13 -53 30 -53 38 0 8 -24 26 -52
41 -29 15 -70 40 -91 57 -35 27 -41 29 -68 18 -22 -10 -33 -10 -41 -2 -8 8 -6
13 8 19 12 5 -24 10 -91 13 -116 5 -119 7 -99 54 6 17 4 18 -22 12 -93 -22
-107 -20 -158 19 -29 22 -54 34 -64 30 -10 -4 -24 4 -39 22 -16 19 -20 21 -11
6 19 -34 4 -38 -54 -14 -81 32 -328 57 -328 32z" id="node1" class="node"></path>
<path d="M730 1714 c-47 -14 -111 -33 -142 -42 -32 -9 -58 -22 -58 -29 0 -7
-5 -13 -11 -13 -15 0 -4 -56 16 -87 13 -19 24 -23 66 -23 28 0 59 5 70 10 17
9 19 7 19 -18 0 -16 9 -41 21 -56 18 -22 27 -26 72 -25 29 1 44 3 35 6 -21 5
-22 16 -8 44 15 26 45 24 68 -6 11 -14 27 -25 35 -25 9 0 29 11 45 25 24 20
41 25 83 25 67 0 55 14 -31 36 -84 21 -191 14 -232 -16 -44 -32 -69 -22 -67
28 0 24 189 116 222 110 21 -4 26 0 31 26 5 23 2 34 -11 43 -27 20 -130 14
-223 -13z" id="node2" class="node"></path>
<path d="M587 954 c-5 -5 -36 -11 -70 -15 l-62 -5 65 -31 65 -30 40 23 c22 12
64 26 93 30 34 4 50 10 44 16 -13 13 -165 23 -175 12z" id="node3" class="node"></path>
<path d="M1644 765 c-51 -60 -262 -231 -283 -228 -32 5 -59 -7 -117 -53 -32
-25 -70 -48 -84 -51 -14 -3 -34 -19 -45 -36 -43 -67 -83 -81 -310 -111 -126
-17 -173 -13 -221 19 l-25 16 15 -28 c8 -15 31 -44 51 -63 l36 -35 97 0 c53 0
116 3 139 8 l42 7 10 -37 c6 -21 13 -50 16 -65 3 -14 17 -40 31 -57 25 -30 29
-31 107 -31 l81 0 110 108 c179 174 463 428 504 451 9 5 14 13 10 17 -4 3 -29
-7 -56 -24 -40 -26 -54 -30 -86 -25 -45 7 -45 10 3 146 46 131 40 150 -25 72z" id="node4" class="node"></path>
<path d="M523 729 c-12 -4 -24 -12 -28 -18 -3 -6 -17 -8 -31 -5 -23 6 -24 4
-24 -39 0 -54 14 -67 43 -39 12 11 35 25 50 31 42 16 300 13 381 -4 76 -16 86
-14 86 19 0 17 -10 25 -47 38 -88 30 -93 31 -93 12 0 -16 -10 -16 -117 -10
-65 4 -136 10 -159 15 -22 4 -50 4 -61 0z" id="node5" class="node"></path>
<path d="M555 559 c-11 -17 4 -53 30 -72 22 -15 36 -17 90 -12 41 5 73 14 86
26 l22 19 -23 25 c-22 23 -31 25 -111 25 -51 0 -91 -4 -94 -11z" id="node6" class="node"></path>
<path d="M2030 127 c-25 -34 -51 -72 -58 -84 l-13 -23 91 0 90 0 0 85 0 85
-32 -1 c-29 0 -39 -9 -78 -62z" id="node7" class="node"></path>
</g>
<g transform="translate(0.000000,300.000000) scale(0.100000,-0.100000)" fill="#A2A2A2" stroke="none">

</g>
</svg>