<?xml version="1.0" encoding="utf-8"?>
<!-- Generator: Adobe Illustrator 16.0.0, SVG Export Plug-In . SVG Version: 6.00 Build 0)  -->
<!DOCTYPE svg PUBLIC "-//W3C//DTD SVG 1.1//EN" "http://www.w3.org/Graphics/SVG/1.1/DTD/svg11.dtd">
<svg version="1.1" id="Layer_1" xmlns="http://www.w3.org/2000/svg" xmlns:xlink="http://www.w3.org/1999/xlink" x="0px" y="0px"
	 width="320px" height="320px" viewBox="-52.5 -10 320 320" enable-background="new -52.5 -10 320 320" xml:space="preserve">
<g transform="translate(0.000000,300.000000) scale(0.100000,-0.100000)">
	<path id="node1" fill="#040404" d="M800,2991.001c0-5-21.001-12.002-47.002-16.001c-41.997-6.001-55.996-15-113.999-75
		c-65-67.998-66.001-67.998-132.998-75c-57.002-6.001-75-13.999-135-55c-126.001-88.999-208.999-206.001-300-421.001
		c-53.003-125-68.003-201.001-52.002-263.999c5-22.002,30-97.998,55-170c32.002-93.999,48.003-157.998,56.001-230
		c6.001-55,17.998-116.001,27.998-135c14.004-30,21.001-35,47.002-32.002c42.002,4.004,115-7.998,115-17.998
		c0-5-22.002-15.996-50-25c-48.999-15.996-66.001-37.002-53.999-67.998c11.001-29.004,37.998-30,60-2.002
		c21.001,27.002,21.997,27.002,40,7.002c31.001-32.002,61.997-42.998,98.999-36.006c61.001,11.006,82.002,73.008,51.001,148.003
		C447.002,1570,403.999,1597.002,323.999,1615c-153.999,33.999-152.998,33.999-147.998,68.999
		c16.997,133.003,26.997,183.999,40,203.003c15,23.999,38.999,30,48.999,11.997c5-6.001,12.002-3.999,20,7.002
		c12.002,16.001,20,16.997,101.001,6.001c86.997-12.002,88.999-11.001,106.001,10.996c10,12.002,17.998,28.003,17.998,35
		c0,17.002,18.999,15,26.001-2.998c7.998-20,23.999-8.999,23.999,16.001c0,10,5,18.999,12.002,18.999c5.996,0,20,7.998,30,17.002
		c17.998,15.996,20.996,13.999,72.998-40c33.999-35,60-54.004,68.999-51.001c8.003,2.998,31.001,26.001,51.001,50
		c22.998,27.998,43.999,43.999,58.999,43.999c12.002,0,27.002,5,33.003,11.001c6.997,6.997,15,6.001,25.996-5
		c21.001-21.001,27.002-20,27.002,2.998c0,41.001,23.999,32.002,83.999-31.997c43.999-48.003,75.005-71.001,111.001-84.004
		c79.004-28.999,117.002-100,155-287.998l15.996-80l38.008-6.001C1400.996,1520,1422.002,1485,1445,1362.002
		c9.004-46.006,20.996-32.002,40.996,47.998c10,39.004,23.008,69.004,28.008,67.002c15-5,32.998-105,41.992-219.004
		c6.006-87.002,9.004-97.998,25-97.998c13.008,0,19.004-7.002,19.004-22.002c0.996-65.996,52.002-55,70.996,15
		c24.004,84.004,42.002,82.002,54.004-5.996c7.002-47.998,7.002-47.998,39.004-41.006c46.992,10,78.994,44.004,40.996,44.004
		c-20,0-19.004,5.996,14.004,72.002c15.996,32.002,32.998,82.002,35.996,110.996c5.996,50,9.004,52.998,55.996,80L1960,1440v92.002
		c0,123.999,22.002,161.997,37.998,66.997c10-58.999,26.006-56.001,30,6.001c4.004,60-13.994,127.998-38.994,151.001
		c-20,17.998-26.006,43.999-10,43.999c15.996,0,58.994-57.998,72.998-97.002c22.002-62.998,15.996-243.994-10-330.996
		c-20-62.998-32.002-82.002-92.998-147.002l-71.006-74.004l16.006-62.998C1920,987.998,1925.996,825,1905,770
		c-9.004-25-19.004-57.002-22.002-72.002l-5-25.996L1915.996,685C1987.998,710.996,2020,697.002,2020,640
		c0-37.002,27.998-34.004,74.004,5.996L2137.998,685l-0.996,860L2135,2405l-27.998,58.999c-16.006,35-47.002,77.002-75,103.003
		c-44.004,40.996-42.002,62.998,2.002,25.996L2055,2575l-20,23.999c-10.996,13.003-44.004,33.999-72.002,47.002
		c-28.994,12.998-52.998,30-52.998,37.998c0,8.003-24.004,26.001-52.002,41.001c-28.994,15-70,40-90.996,57.002
		c-35,26.997-41.006,28.999-67.998,17.998c-22.002-10-33.008-10-41.006-2.002c-7.998,8.003-5.996,13.003,7.998,19.004
		c12.002,5-23.994,10-90.996,12.998c-115.996,5-119.004,7.002-99.004,53.999c6.006,17.002,4.004,18.003-21.992,12.002
		c-93.008-22.002-107.002-20-158.008,18.999c-28.994,22.002-53.994,33.999-63.994,30s-24.004,3.999-39.004,22.002
		c-15.996,18.999-20,20.996-10.996,5.996c18.994-33.999,3.994-37.998-54.004-13.999C1047.002,2991.001,800,3016.001,800,2991.001z"
		/>
	<path id="node2" fill="#040404" d="M730,1713.999c-47.002-13.999-111.001-32.998-142.002-41.997
		C556.001,1662.998,530,1650,530,1642.998c0-6.997-5-12.998-11.001-12.998c-15,0-3.999-56.001,16.001-87.002
		c12.998-18.999,23.999-22.998,66.001-22.998c27.998,0,58.999,5,70,10c16.997,8.999,18.999,7.002,18.999-17.998
		c0-16.001,8.999-41.006,21.001-56.006c17.998-21.992,26.997-25.996,71.997-25c29.004,1.006,44.004,3.008,35,6.006
		c-20.996,5-21.997,15.996-7.998,43.994c15,26.006,45,24.004,67.998-5.996c11.001-14.004,27.002-25,35-25
		c9.004,0,29.004,10.996,45,25c24.004,20,41.001,25,83.003,25c66.997,0,54.995,13.999-31.001,36.001
		C926.001,1557.002,818.999,1550,777.998,1520c-43.999-32.002-68.999-22.002-66.997,27.998c0,24.004,188.999,116.001,221.997,110
		c21.001-3.999,26.001,0,31.001,26.001c5,23.003,2.002,33.999-11.001,43.003C926.001,1747.002,822.998,1741.001,730,1713.999z"/>
	<path id="node3" fill="#040404" d="M587.002,954.004c-5-5-36.001-11.006-70-15l-62.002-5l65-31.006l65-30l40,22.998
		c22.002,12.002,63.999,26.006,92.998,30c34.004,4.004,50,10,44.004,16.006C748.999,955,597.002,965,587.002,954.004z"/>
	<path id="node4" fill="#040404" d="M1644.004,765c-51.006-60-262.002-230.996-283.008-227.998
		c-31.992,5-58.994-7.002-116.992-52.998c-32.002-25-70-48.008-84.004-51.006s-34.004-18.994-45-35.996
		c-42.998-67.002-82.998-81.006-310-111.006C678.999,269.004,632.002,272.998,583.999,305l-25,15.996l15-27.998
		C582.002,277.998,605,249.004,625,230l36.001-35h96.997c53.003,0,116.001,2.998,139.004,7.998L938.999,210l10-37.002
		c6.001-20.996,13.003-50,16.001-65c2.998-13.994,17.002-40,31.001-57.002c25-30,28.999-30.996,106.997-30.996h81.006l110,107.998
		c178.994,174.004,462.998,427.998,503.994,451.006c9.004,5,14.004,12.998,10,16.992c-3.994,3.008-28.994-6.992-55.996-23.994
		c-40-26.006-54.004-30-86.006-25c-45,7.002-45,10,3.008,145.996C1715,824.004,1709.004,842.998,1644.004,765z"/>
	<path id="node5" fill="#040404" d="M522.998,729.004C511.001,725,498.999,717.002,495,710.996c-2.998-5.996-17.002-7.998-31.001-5
		C441.001,712.002,440,710,440,667.002c0-54.004,13.999-67.002,42.998-39.004c12.002,11.006,35,25,50,31.006
		C575,675,832.998,672.002,913.999,655C990,639.004,1000,640.996,1000,674.004c0,16.992-10,25-47.002,37.998
		C865,742.002,860,742.998,860,724.004c0-16.006-10-16.006-117.002-10c-65,3.994-135.996,10-158.999,15
		C562.002,732.998,533.999,732.998,522.998,729.004z"/>
	<path id="node6" fill="#040404" d="M555,559.004c-11.001-17.002,3.999-53.008,30-72.002c22.002-15,36.001-17.002,90-12.002
		c41.001,5,72.998,14.004,86.001,25.996L782.998,520L760,545c-22.002,22.998-31.001,25-111.001,25
		C597.998,570,557.998,565.996,555,559.004z"/>
	<path id="node7" fill="#040404" d="M2030,127.002c-25-34.004-50.996-72.002-57.998-84.004L1959.004,20H2050h90v85v85l-32.002-0.996
		C2079.004,189.004,2069.004,180,2030,127.002z"/>
</g>
<g transform="translate(0.000000,300.000000) scale(0.100000,-0.100000)">
</g>
</svg>
