<?xml version="1.0" encoding="utf-8"?>
<!-- Generator: Adobe Illustrator 16.0.0, SVG Export Plug-In . SVG Version: 6.00 Build 0)  -->
<!DOCTYPE svg PUBLIC "-//W3C//DTD SVG 1.1//EN" "http://www.w3.org/Graphics/SVG/1.1/DTD/svg11.dtd">
<svg version="1.1" id="Layer_1" xmlns="http://www.w3.org/2000/svg" xmlns:xlink="http://www.w3.org/1999/xlink" x="0px" y="0px"
	 width="1094.916px" height="436.819px" viewBox="0 0 1094.916 436.819" enable-background="new 0 0 1094.916 436.819"
	 xml:space="preserve">
<g>
	<path fill-rule="evenodd" clip-rule="evenodd" fill="#FFFFFF" d="M-15.172,468.201c0-159.979,0-319.959,0-479.939
		c374.953,0,749.906,0,1124.859,0c0,159.98,0,319.96,0,479.939C734.734,468.201,359.781,468.201-15.172,468.201z M1085.832,0
		c-0.716,1.917-1.077,2.383-1.006,2.77c1.284,7.01,3.589,13.987,3.742,21.015c0.322,14.738,0.654,29.637-1.094,44.221
		c-2.58,21.524-10.021,41.895-20.185,61.012c-10.784,20.279-24.764,38.462-40.819,54.8c-12.6,12.821-26.05,24.856-39.649,36.631
		c-10.094,8.741-20.575,17.198-31.696,24.553c-20.201,13.359-41.112,25.525-63.361,35.402c-18.561,8.24-37.39,15.495-56.841,21.299
		c-29.295,8.738-58.902,15.853-89.434,18.554c-12.423,1.099-24.875,3.064-37.282,2.838c-15.034-0.276-30.049-2.314-45.045-3.854
		c-13.504-1.385-26.399-5.347-38.579-11.163c-4.73-2.259-9.448-5.678-12.659-9.759c-8.438-10.726-7.834-22.923-3.635-35.223
		c1.929-5.651,4.351-11.17,5.798-16.938c1.062-4.23-0.342-9.414,1.542-13.032c3.932-7.553,8.892-14.685,14.207-21.371
		c5.936-7.465,13.141-13.922,19.07-21.392c10.602-13.356,22.499-25.226,36.773-34.585c13.207-8.66,24.501-19.42,35.645-30.54
		c12.853-12.825,24.618-26.498,34.969-41.318c6.748-9.664,12.599-19.987,18.396-30.271c2.824-5.012,1.736-12.594-1.165-14.968
		c-3.018-2.467-9.726-2.161-14.515,2.098c-7.654,6.805-15.242,13.879-21.72,21.775c-12.917,15.749-24.965,32.207-37.554,48.23
		c-10.69,13.609-21.572,27.07-32.52,40.475c-2.514,3.079-5.641,5.657-8.959,8.934c-0.567-2.973-0.894-4.684-1.266-6.632
		c-4.939,1.49-5.622,4.462-4.786,8.737c0.515,2.637,0.809,5.991-0.386,8.142c-2.188,3.943-5.37,7.399-8.455,10.768
		c-12.153,13.276-24.595,26.292-36.598,39.701c-6.974,7.791-13.39,16.09-19.919,24.269c-6.609,8.278-13.299,16.512-19.469,25.112
		c-3.604,5.022-8.787,9.555-8.371,16.543c0.116,1.951,1.317,4.959,2.727,5.447c2.047,0.708,5.728,0.456,6.969-0.939
		c4.692-5.271,8.668-11.179,12.938-16.828c3.522-4.659,7.081-9.29,10.624-13.934c0.445,0.292,0.891,0.584,1.336,0.876
		c0.087,0.793,0.277,1.589,0.246,2.377c-0.315,7.917-1.232,15.856-0.877,23.741c0.536,11.9,5.681,21.79,15.752,28.532
		c8.987,6.016,19.087,9.466,29.501,12.285c15.949,4.321,32.114,7.342,48.604,7.656c24.751,0.471,49.531,0.554,74.038-3.918
		c15.319-2.797,30.794-4.981,45.895-8.682c16.466-4.035,32.777-8.937,48.788-14.515c14.817-5.162,29.36-11.257,43.632-17.796
		c12.648-5.795,24.844-12.609,37.086-19.255c17.425-9.459,32.781-21.858,47.798-34.648c9.519-8.106,18.978-16.328,27.907-25.066
		c12.967-12.69,26.007-25.39,37.952-39.017c12.587-14.356,22.353-30.776,30.407-48.163c8.076-17.438,12.731-35.859,14.141-54.854
		c1.525-20.558-0.966-40.972-5.921-61.021C1087.896,6.463,1086.997,3.875,1085.832,0z M564.882,156.957
		c0,2.64-0.212,3.663,0.033,4.561c2.788,10.266,3.837,20.5,3.15,31.303c-0.944,14.861-5.412,28.417-11.85,41.411
		c-10.483,21.16-25.47,39.115-41.856,55.901c-7.807,7.997-16.711,14.988-24.011,23.396c-10.45,12.037-23.445,19.03-38.572,22.604
		c-2.196,0.52-4.744-0.449-7.128-0.73c-0.219-0.598-0.438-1.194-0.656-1.793c5.074-6.133,10.073-12.327,15.237-18.382
		c7.923-9.291,16.674-18.061,21.121-29.693c1.133-2.966,1.311-8.004-0.441-9.901c-1.864-2.018-7.222-2.93-9.871-1.725
		c-10.483,4.771-19.227,12.095-23.129,23.325c-5.16,14.854-12.129,28.461-23.852,39.168c-6.045,5.522-12.407,10.713-18.819,15.812
		c-5.593,4.448-11.749,7.549-19.296,7.08c-5.223-0.324-8.287-3.513-7.172-8.646c0.75-3.451,1.468-7.211,3.36-10.063
		c9.432-14.222,18.961-28.399,29.048-42.158c5.13-6.999,6.848-6.805,14.855-3.67c1.518,0.594,3.341,0.861,4.956,0.678
		c5.64-0.645,9.218-11.078,4.602-15.86c-8.471-8.776-22.437-9.351-31.625,3.499c-5.935,8.3-10.489,17.592-16.468,25.856
		c-9.552,13.204-20.248,25.595-29.56,38.956c-7.244,10.393-17.591,14.592-30.154,18.756c6.726-10.34,12.611-19.494,18.605-28.576
		c6.307-9.556,14.555-18.216,14.598-30.67c0.011-3.032,1.221-6.899-3.084-8.508c-4.03-1.506-7.017-0.157-9.082,3.479
		c-1.033,1.818-2.118,3.624-2.965,5.531c-5.677,12.8-10.457,26.235-20.665,36.29c-6.917,6.813-12.641,14.17-16.387,23.104
		c-2.806,6.694-8.544,10.491-14.424,14.029c-1.205,0.726-2.882,0.668-5.284,1.168c0.884-2.709,1.101-4.579,2.026-5.982
		c2.685-4.073,5.85-7.836,8.473-11.944c8.127-12.726,16.112-25.54,24.104-38.351c2.125-3.406,4.156-6.877,6.083-10.398
		c2.147-3.926,1.328-8.036-2.25-9.941c-3.773-2.01-7.519-0.149-9.834,3.787c-3.545,6.024-6.972,12.132-10.815,17.963
		c-9.55,14.488-19.323,28.827-28.974,43.248c-5.676,8.479-12.229,15.803-23.197,16.856c-2,0.192-4.57-0.272-5.986-1.479
		c-0.715-0.609,0.059-3.873,1.017-5.397c7.863-12.519,15.942-24.9,23.928-37.343c5.351-8.336,11.269-16.382,15.806-25.141
		c4.463-8.616,2.947-17.73-3.997-22.845c-7.189-5.295-14.699-4.445-23.413,3.156c-15.102,13.174-25.316,30.315-36.169,46.819
		c-9.725,14.789-18.729,30.057-27.955,45.172c-2.685,4.4-5.503,8.824-7.328,13.595c-0.778,2.031,0.02,5.851,1.563,7.299
		c2.126,1.994,4.939,0.316,6.696-2.039c3.798-5.092,7.477-10.276,11.371-15.292c13.66-17.594,25.746-36.216,37.369-55.208
		c4.414-7.213,10.872-13.211,16.701-19.483c0.824-0.886,4.003-0.868,4.945-0.011c0.99,0.902,1.385,3.756,0.689,5.002
		c-5.047,9.042-10.463,17.875-15.709,26.806c-6.476,11.027-13.658,21.727-19.102,33.243c-4.179,8.84-0.637,14.803,11.036,15.636
		c7.407,0.529,13.058-3.388,19.159-6.288c7.827-3.721,7.833-3.818,13.795,2.045c2.949,2.899,5.855,3.515,10.169,2.489
		c8.258-1.962,12.677-8.189,17.465-13.944c5.155-6.196,6.688-6.838,14.01-3.994c2.235,0.868,4.932,1.022,7.363,0.828
		c8.83-0.705,14.59-7.342,21.527-11.662c5.134-3.198,9.993-6.839,15.465-10.622c0.851,2.57,1.285,3.948,1.762,5.311
		c1.876,5.369,4.609,9.789,11.166,9.824c2.494,0.014,5.014,0.16,7.479-0.129c12.955-1.517,23.664-7.738,33.114-16.335
		c4.098-3.729,7.844-7.844,11.805-11.724c2.023-1.982,4.298-2.217,6.435-0.216c7.195,6.742,15.469,5.804,23.689,2.952
		c16.076-5.577,30.215-14.693,42.296-26.451c10.734-10.445,21.135-21.447,30.206-33.332c11.117-14.564,20.688-30.307,30.943-45.529
		c6.936-10.296,11.294-21.837,12.41-33.943c1.527-16.554,0.112-33.106-6.786-48.664
		C568.141,159.695,566.826,158.917,564.882,156.957z M176.472,296.31c-6.013,6.957-12.271,13.446-17.665,20.589
		c-13.128,17.386-26.268,34.792-38.624,52.728c-11.518,16.719-17.448,35.43-15.206,56.011c0.816,7.486,4.383,12.001,11.119,10.317
		c5.25-1.311,11.006-2.832,15.114-6.068c15.042-11.849,29.903-24.002,44.005-36.941c8.68-7.965,16.3-17.219,23.598-26.521
		c8.981-11.444,14.002-24.879,15.843-39.271c1.41-11.031-2.64-20.415-10.014-28.71c-2.399-2.7-6.756-5.562-3.798-10.403
		c1.439-2.354,3.25-4.531,5.147-6.55c12.129-12.904,24.257-25.813,36.527-38.584c12.472-12.981,24.998-25.916,37.695-38.676
		c24.911-25.035,49.977-49.915,74.922-74.915c3.372-3.379,6.584-6.95,9.568-10.674c2.941-3.668,5.498-7.644,8.223-11.485
		c-0.321-0.328-0.643-0.657-0.964-0.986c-0.933,0.422-2.007,0.67-2.78,1.292c-12.464,10.046-25.351,19.628-37.22,30.338
		c-18.546,16.735-36.463,34.174-54.516,51.45c-8.267,7.912-16.288,16.086-24.297,24.263c-5.673,5.79-11.104,11.817-16.703,17.682
		c-14.3,14.981-28.601,29.963-42.975,44.873c-3.675,3.813-7.902,5.015-13.364,3.367c-3.987-1.204-8.478-1.251-12.704-1.033
		c-5.776,0.297-11.514,1.334-18.744,2.238c2.016-2.878,2.989-4.728,4.382-6.174c4.505-4.678,9.523-8.914,13.625-13.909
		c2.292-2.792,4.708-6.919,4.355-10.147c-0.749-6.831-7.452-8.704-13.978-3.59c-6.877,5.387-13.289,11.528-19.149,18.021
		c-14.191,15.722-27.911,31.867-41.883,47.787c-8.029,9.148-16.2,18.171-24.267,27.284c-12.524,14.149-25.053,28.297-37.509,42.507
		c-8.543,9.748-17.335,19.313-25.298,29.521c-4.391,5.628-9.511,11.485-8.887,19.519c0.146,1.875,1.218,4.921,2.388,5.196
		c2.019,0.475,5.116-0.092,6.586-1.471c4.801-4.51,9.334-9.369,13.498-14.48c11.646-14.292,22.857-28.941,34.621-43.134
		c9.479-11.438,19.096-22.818,29.417-33.485c11.322-11.701,22.481-23.594,36.301-32.733c11.517-7.616,23.561-13.729,36.872-16.969
		C164.83,293.14,170.681,290.846,176.472,296.31z M734.923,234.086c2.306,2.614,4.41,4.397,5.745,6.638
		c2.644,4.441,7.056,5.204,11.409,6.444c9.329,2.657,18.112-0.235,26.834-2.699c23.07-6.517,42.803-19.751,61.9-33.377
		c15.614-11.141,29.676-24.556,43.85-37.588c13.612-12.516,23.925-27.614,31.074-44.75c3.594-8.615,6.37-17.523,5.761-26.948
		c-0.578-8.944-1.674-17.879-3.046-26.739c-0.568-3.668-2.449-7.132-4.111-11.739c-0.585,9.162-1.155,16.898-1.558,24.644
		c-0.729,13.984-4.751,27.125-10.264,39.843c-9.743,22.479-26.305,39.687-44.855,54.748c-15.741,12.782-32.435,24.535-49.518,35.479
		c-15.063,9.65-31.739,15.884-50.216,15.243c-6.532-0.226-9.433-4.372-5.82-9.664c6.695-9.806,14.201-19.056,21.271-28.61
		c4.251-5.745,8.709-11.396,12.318-17.534c2.092-3.557,2.173-8.418-1.052-11.446c-3.063-2.876-7.186-2.25-11.019-0.2
		c-7.392,3.953-13.648,9.292-18.049,16.292c-3.506,5.575-5.884,11.862-8.729,17.849c-7.054,14.842-19.252,25.366-30.967,36.151
		c-5.316,4.896-11.703,8.773-18.019,12.39c-3.989,2.286-8.662,3.606-13.196,4.602c-1.76,0.387-4.457-0.845-5.813-2.232
		c-0.857-0.879-0.461-3.574,0.147-5.157c0.984-2.557,2.283-5.131,4.012-7.235c10.134-12.334,20.375-24.582,30.695-36.761
		c5.804-6.848,11.776-13.614,14.258-22.45c0.6-2.135,0.154-5.327-1.124-7.07c-3.049-4.161-8.409-4.14-12.69,0.345
		c-6.14,6.433-12.181,13.073-17.383,20.262c-11.205,15.484-20.406,32.459-35.142,45.256c-2.723,2.365-4.59,5.921-6.271,9.224
		c-1.828,3.589,1.107,9.492,4.242,8.666c6.549-1.728,7.821,3.245,10.537,6.83c1.509,1.99,3.41,4.675,5.485,5.038
		c4.159,0.727,8.77,0.89,12.821-0.158c15.078-3.898,26.313-13.854,36.922-24.646C728.25,240.092,731.372,237.394,734.923,234.086z"
		/>
	<path fill-rule="evenodd" clip-rule="evenodd" fill="#FFFFFF" d="M1085.832,0c1.165,3.875,2.064,6.463,2.718,9.111
		c4.955,20.049,7.446,40.463,5.921,61.021c-1.409,18.996-6.064,37.416-14.141,54.854c-8.055,17.386-17.82,33.806-30.407,48.163
		c-11.945,13.626-24.985,26.326-37.952,39.017c-8.93,8.738-18.389,16.96-27.907,25.066c-15.017,12.79-30.373,25.189-47.798,34.648
		c-12.242,6.646-24.438,13.46-37.086,19.255c-14.271,6.539-28.814,12.634-43.632,17.796c-16.011,5.578-32.322,10.479-48.788,14.515
		c-15.101,3.7-30.575,5.885-45.895,8.682c-24.507,4.472-49.287,4.389-74.038,3.918c-16.49-0.314-32.655-3.335-48.604-7.656
		c-10.414-2.819-20.514-6.27-29.501-12.285c-10.071-6.742-15.216-16.632-15.752-28.532c-0.355-7.885,0.562-15.824,0.877-23.741
		c0.031-0.788-0.159-1.584-0.246-2.377c-0.445-0.292-0.891-0.584-1.336-0.876c-3.543,4.644-7.102,9.274-10.624,13.934
		c-4.27,5.649-8.245,11.558-12.938,16.828c-1.241,1.396-4.922,1.647-6.969,0.939c-1.409-0.488-2.61-3.496-2.727-5.447
		c-0.416-6.988,4.768-11.521,8.371-16.543c6.17-8.601,12.859-16.834,19.469-25.112c6.529-8.179,12.945-16.478,19.919-24.269
		c12.003-13.409,24.444-26.425,36.598-39.701c3.085-3.369,6.268-6.825,8.455-10.768c1.194-2.151,0.9-5.504,0.386-8.142
		c-0.836-4.275-0.153-7.247,4.786-8.737c0.372,1.948,0.698,3.66,1.266,6.632c3.318-3.276,6.445-5.855,8.959-8.934
		c10.947-13.405,21.829-26.866,32.52-40.475c12.589-16.023,24.637-32.481,37.554-48.23c6.478-7.896,14.065-14.97,21.72-21.775
		c4.789-4.259,11.497-4.565,14.515-2.098c2.901,2.374,3.989,9.956,1.165,14.968c-5.797,10.285-11.647,20.608-18.396,30.271
		c-10.351,14.82-22.116,28.494-34.969,41.318c-11.144,11.12-22.438,21.88-35.645,30.54c-14.274,9.36-26.172,21.229-36.773,34.585
		c-5.93,7.47-13.135,13.927-19.07,21.392c-5.315,6.686-10.275,13.818-14.207,21.371c-1.884,3.618-0.48,8.802-1.542,13.032
		c-1.447,5.768-3.869,11.286-5.798,16.938c-4.199,12.3-4.804,24.497,3.635,35.223c3.211,4.081,7.929,7.5,12.659,9.759
		c12.18,5.816,25.075,9.778,38.579,11.163c14.996,1.539,30.011,3.577,45.045,3.854c12.407,0.227,24.859-1.739,37.282-2.838
		c30.531-2.701,60.139-9.815,89.434-18.554c19.451-5.804,38.28-13.059,56.841-21.299c22.249-9.877,43.16-22.043,63.361-35.402
		c11.121-7.354,21.603-15.812,31.696-24.553c13.6-11.775,27.05-23.81,39.649-36.631c16.056-16.338,30.035-34.521,40.819-54.8
		c10.164-19.117,17.604-39.488,20.185-61.012c1.748-14.584,1.416-29.482,1.094-44.221c-0.153-7.028-2.458-14.005-3.742-21.015
		C1084.754,2.383,1085.116,1.917,1085.832,0z M745.519,77.656c-0.433-0.385-0.865-0.771-1.297-1.155
		c-13.207,12.387-33.477,38.002-33.795,43.734C722.504,105.581,734.012,91.618,745.519,77.656z"/>
	<path fill-rule="evenodd" clip-rule="evenodd" fill="#FFFFFF" d="M564.882,156.957c1.943,1.96,3.259,2.738,3.764,3.877
		c6.898,15.558,8.313,32.11,6.786,48.664c-1.116,12.106-5.475,23.647-12.41,33.943c-10.255,15.223-19.827,30.965-30.943,45.529
		c-9.07,11.885-19.472,22.887-30.206,33.332c-12.082,11.758-26.22,20.874-42.296,26.451c-8.221,2.852-16.494,3.79-23.689-2.952
		c-2.136-2.001-4.412-1.767-6.435,0.216c-3.961,3.88-7.707,7.994-11.805,11.724c-9.45,8.597-20.16,14.818-33.114,16.335
		c-2.464,0.289-4.984,0.143-7.479,0.129c-6.557-0.035-9.29-4.455-11.166-9.824c-0.477-1.362-0.911-2.74-1.762-5.311
		c-5.472,3.783-10.331,7.424-15.465,10.622c-6.938,4.32-12.697,10.957-21.527,11.662c-2.431,0.194-5.128,0.04-7.363-0.828
		c-7.322-2.844-8.855-2.202-14.01,3.994c-4.788,5.755-9.207,11.982-17.465,13.944c-4.314,1.025-7.22,0.41-10.169-2.489
		c-5.962-5.863-5.968-5.766-13.795-2.045c-6.101,2.9-11.752,6.817-19.159,6.288c-11.673-0.833-15.215-6.796-11.036-15.636
		c5.444-11.517,12.625-22.216,19.102-33.243c5.246-8.931,10.662-17.764,15.709-26.806c0.696-1.246,0.301-4.1-0.689-5.002
		c-0.942-0.857-4.121-0.875-4.945,0.011c-5.829,6.272-12.287,12.271-16.701,19.483c-11.623,18.992-23.709,37.614-37.369,55.208
		c-3.895,5.016-7.573,10.2-11.371,15.292c-1.756,2.355-4.569,4.033-6.696,2.039c-1.543-1.448-2.341-5.268-1.563-7.299
		c1.825-4.771,4.643-9.194,7.328-13.595c9.226-15.115,18.23-30.383,27.955-45.172c10.853-16.504,21.067-33.646,36.169-46.819
		c8.714-7.602,16.223-8.451,23.413-3.156c6.944,5.114,8.46,14.229,3.997,22.845c-4.538,8.759-10.456,16.805-15.806,25.141
		c-7.986,12.442-16.065,24.824-23.928,37.343c-0.958,1.524-1.732,4.788-1.017,5.397c1.417,1.206,3.986,1.671,5.986,1.479
		c10.967-1.054,17.521-8.377,23.197-16.856c9.651-14.421,19.424-28.76,28.974-43.248c3.843-5.831,7.27-11.938,10.815-17.963
		c2.316-3.937,6.062-5.797,9.834-3.787c3.578,1.905,4.397,6.016,2.25,9.941c-1.927,3.521-3.958,6.992-6.083,10.398
		c-7.991,12.811-15.977,25.625-24.104,38.351c-2.624,4.108-5.788,7.871-8.473,11.944c-0.925,1.403-1.142,3.273-2.026,5.982
		c2.402-0.5,4.079-0.442,5.284-1.168c5.88-3.538,11.618-7.335,14.424-14.029c3.746-8.935,9.47-16.292,16.387-23.104
		c10.208-10.055,14.988-23.49,20.665-36.29c0.847-1.907,1.932-3.713,2.965-5.531c2.065-3.636,5.052-4.984,9.082-3.479
		c4.305,1.608,3.095,5.476,3.084,8.508c-0.043,12.454-8.291,21.114-14.598,30.67c-5.994,9.082-11.879,18.236-18.605,28.576
		c12.563-4.164,22.91-8.363,30.154-18.756c9.313-13.361,20.008-25.752,29.56-38.956c5.979-8.265,10.533-17.557,16.468-25.856
		c9.188-12.85,23.153-12.275,31.625-3.499c4.617,4.782,1.038,15.216-4.602,15.86c-1.614,0.184-3.438-0.084-4.956-0.678
		c-8.008-3.135-9.726-3.329-14.855,3.67c-10.087,13.759-19.617,27.937-29.048,42.158c-1.892,2.852-2.61,6.611-3.36,10.063
		c-1.115,5.133,1.949,8.321,7.172,8.646c7.548,0.469,13.704-2.632,19.296-7.08c6.412-5.099,12.774-10.289,18.819-15.812
		c11.722-10.707,18.691-24.314,23.852-39.168c3.902-11.23,12.646-18.555,23.129-23.325c2.649-1.205,8.007-0.293,9.871,1.725
		c1.752,1.897,1.575,6.936,0.441,9.901c-4.447,11.633-13.198,20.402-21.121,29.693c-5.165,6.055-10.164,12.249-15.237,18.382
		c0.219,0.599,0.438,1.195,0.656,1.793c2.384,0.281,4.932,1.25,7.128,0.73c15.127-3.574,28.123-10.567,38.572-22.604
		c7.3-8.408,16.204-15.399,24.011-23.396c16.387-16.786,31.373-34.741,41.856-55.901c6.438-12.994,10.905-26.55,11.85-41.411
		c0.687-10.803-0.362-21.037-3.15-31.303C564.67,160.62,564.882,159.596,564.882,156.957z"/>
	<path fill-rule="evenodd" clip-rule="evenodd" fill="#FFFFFF" d="M176.472,296.31c-5.792-5.464-11.643-3.17-16.738-1.929
		c-13.312,3.24-25.355,9.353-36.872,16.969c-13.82,9.14-24.979,21.032-36.301,32.733c-10.321,10.667-19.937,22.048-29.417,33.485
		c-11.764,14.192-22.975,28.842-34.621,43.134c-4.164,5.111-8.696,9.971-13.498,14.48c-1.47,1.379-4.567,1.945-6.586,1.471
		c-1.17-0.275-2.243-3.321-2.388-5.196c-0.624-8.033,4.496-13.891,8.887-19.519c7.963-10.207,16.754-19.772,25.298-29.521
		c12.456-14.21,24.984-28.357,37.509-42.507c8.067-9.113,16.238-18.136,24.267-27.284c13.972-15.92,27.692-32.065,41.883-47.787
		c5.861-6.492,12.272-12.634,19.149-18.021c6.525-5.114,13.229-3.241,13.978,3.59c0.354,3.229-2.063,7.355-4.355,10.147
		c-4.103,4.995-9.12,9.231-13.625,13.909c-1.393,1.446-2.367,3.296-4.382,6.174c7.23-0.904,12.968-1.941,18.744-2.238
		c4.227-0.218,8.717-0.171,12.704,1.033c5.461,1.647,9.688,0.445,13.364-3.367c14.374-14.91,28.675-29.892,42.975-44.873
		c5.599-5.865,11.03-11.892,16.703-17.682c8.009-8.177,16.03-16.351,24.297-24.263c18.052-17.276,35.969-34.714,54.516-51.45
		c11.869-10.709,24.755-20.292,37.22-30.338c0.772-0.622,1.847-0.87,2.78-1.292c0.321,0.329,0.643,0.658,0.964,0.986
		c-2.725,3.841-5.281,7.816-8.223,11.485c-2.984,3.724-6.196,7.295-9.568,10.674c-24.945,25-50.011,49.88-74.922,74.915
		c-12.698,12.76-25.223,25.694-37.695,38.676c-12.27,12.771-24.397,25.68-36.527,38.584c-1.897,2.019-3.708,4.195-5.147,6.55
		c-2.958,4.842,1.399,7.703,3.798,10.403c7.375,8.295,11.424,17.679,10.014,28.71c-1.84,14.393-6.862,27.827-15.843,39.271
		c-7.298,9.302-14.918,18.556-23.598,26.521c-14.103,12.939-28.964,25.093-44.005,36.941c-4.108,3.236-9.865,4.758-15.114,6.068
		c-6.736,1.684-10.303-2.831-11.119-10.317c-2.242-20.581,3.688-39.292,15.206-56.011c12.356-17.936,25.496-35.342,38.624-52.728
		C164.201,309.756,170.459,303.267,176.472,296.31z M119.712,420.3c2.403-1.172,5.069-1.911,7.018-3.52
		c10.976-9.06,22.12-17.959,32.55-27.621c12.414-11.499,23.375-24.382,32.708-38.567c9.005-13.686,9.651-27.779,1.89-42.209
		c-2.222-4.131-6.333-5.563-8.681-2.986c-4.464,4.902-8.936,9.82-13.044,15.017c-9.133,11.554-18.019,23.303-27.052,34.937
		c-12.202,15.712-23.377,31.997-26.876,52.12C117.503,411.62,113.818,416.626,119.712,420.3z"/>
	<path fill-rule="evenodd" clip-rule="evenodd" fill="#FFFFFF" d="M734.923,234.086c-3.552,3.308-6.673,6.006-9.557,8.938
		c-10.608,10.792-21.844,20.747-36.922,24.646c-4.052,1.048-8.662,0.885-12.821,0.158c-2.075-0.363-3.977-3.048-5.485-5.038
		c-2.716-3.585-3.988-8.558-10.537-6.83c-3.135,0.826-6.07-5.077-4.242-8.666c1.681-3.303,3.548-6.858,6.271-9.224
		c14.735-12.797,23.937-29.772,35.142-45.256c5.202-7.189,11.243-13.829,17.383-20.262c4.281-4.485,9.642-4.506,12.69-0.345
		c1.278,1.744,1.724,4.936,1.124,7.07c-2.481,8.836-8.454,15.603-14.258,22.45c-10.32,12.179-20.562,24.427-30.695,36.761
		c-1.729,2.104-3.027,4.679-4.012,7.235c-0.608,1.583-1.005,4.278-0.147,5.157c1.355,1.388,4.053,2.619,5.813,2.232
		c4.534-0.995,9.207-2.315,13.196-4.602c6.315-3.616,12.702-7.494,18.019-12.39c11.715-10.786,23.913-21.31,30.967-36.151
		c2.846-5.987,5.224-12.274,8.729-17.849c4.4-7,10.657-12.339,18.049-16.292c3.833-2.05,7.956-2.676,11.019,0.2
		c3.225,3.028,3.144,7.889,1.052,11.446c-3.609,6.138-8.067,11.79-12.318,17.534c-7.07,9.554-14.576,18.804-21.271,28.61
		c-3.612,5.292-0.712,9.438,5.82,9.664c18.477,0.642,35.153-5.593,50.216-15.243c17.083-10.944,33.776-22.697,49.518-35.479
		c18.551-15.062,35.112-32.27,44.855-54.748c5.513-12.718,9.535-25.859,10.264-39.843c0.402-7.745,0.973-15.481,1.558-24.644
		c1.662,4.607,3.543,8.071,4.111,11.739c1.372,8.86,2.468,17.794,3.046,26.739c0.609,9.424-2.167,18.333-5.761,26.948
		c-7.149,17.136-17.462,32.234-31.074,44.75c-14.174,13.033-28.235,26.447-43.85,37.588c-19.098,13.626-38.83,26.861-61.9,33.377
		c-8.722,2.464-17.505,5.356-26.834,2.699c-4.354-1.24-8.766-2.003-11.409-6.444C739.333,238.484,737.229,236.701,734.923,234.086z"
		/>
	<path fill-rule="evenodd" clip-rule="evenodd" fill="#FFFFFF" d="M745.519,77.656c-11.507,13.962-23.015,27.924-35.092,42.579
		c0.318-5.732,20.588-31.347,33.795-43.734C744.654,76.886,745.086,77.271,745.519,77.656z"/>
	<path fill-rule="evenodd" clip-rule="evenodd" fill="#FFFFFF" d="M119.712,420.3c-5.894-3.674-2.209-8.681-1.487-12.83
		c3.499-20.123,14.674-36.408,26.876-52.12c9.034-11.634,17.919-23.383,27.052-34.937c4.108-5.196,8.58-10.114,13.044-15.017
		c2.348-2.577,6.459-1.145,8.681,2.986c7.761,14.43,7.115,28.523-1.89,42.209c-9.333,14.186-20.294,27.068-32.708,38.567
		c-10.431,9.662-21.575,18.562-32.55,27.621C124.781,418.389,122.115,419.128,119.712,420.3z"/>
</g>
</svg>
